<?xml version="1.0" encoding="utf-8"?>
<svg viewBox="117.419 109.883 250.39 157.96" xmlns="http://www.w3.org/2000/svg" xmlns:xlink="http://www.w3.org/1999/xlink">
  <defs>
    <clipPath id="clip-path" transform="translate(14.98 14.63)">
      <polygon class="cls-1" points="250.39 157.96 250.39 157.96 0 157.96 0 0 250.39 0 250.39 157.96" style="fill: none;"/>
    </clipPath>
    <linearGradient id="Gradiente_sem_nome_245" x1="139.64" y1="103.07" x2="132.06" y2="236.94" gradientUnits="userSpaceOnUse">
      <stop offset="0" stop-color="#fff" stop-opacity="0"/>
      <stop offset="1" stop-color="#ec6608"/>
    </linearGradient>
    <linearGradient id="Gradiente_sem_nome_277" x1="167.64" y1="154.82" x2="119.65" y2="47.89" gradientUnits="userSpaceOnUse">
      <stop offset="0.4" stop-color="#ec6608"/>
      <stop offset="0.48" stop-color="#e86508"/>
      <stop offset="0.56" stop-color="#dd6007"/>
      <stop offset="0.64" stop-color="#ca5905"/>
      <stop offset="0.71" stop-color="#af4e02"/>
      <stop offset="0.72" stop-color="#ac4d02"/>
    </linearGradient>
    <linearGradient id="Gradiente_sem_nome_245-2" x1="133.86" y1="88.94" x2="91.76" y2="40.53" xlink:href="#Gradiente_sem_nome_245"/>
    <linearGradient id="Gradiente_sem_nome_176" x1="129.89" y1="112.21" x2="105.26" y2="-62.08" gradientUnits="userSpaceOnUse">
      <stop offset="0.23" stop-color="#ec6608"/>
      <stop offset="0.46" stop-color="#e96508"/>
      <stop offset="0.64" stop-color="#df6107"/>
      <stop offset="0.79" stop-color="#cf5a05"/>
      <stop offset="0.94" stop-color="#b75103"/>
      <stop offset="1" stop-color="#ac4d02"/>
    </linearGradient>
    <linearGradient id="Gradiente_sem_nome_281" x1="177.11" y1="74.91" x2="59.25" y2="146.75" gradientUnits="userSpaceOnUse">
      <stop offset="0" stop-color="#fff" stop-opacity="0.2"/>
      <stop offset="1" stop-color="#ec6608"/>
    </linearGradient>
    <linearGradient id="Gradiente_sem_nome_285" x1="170.06" y1="83.85" x2="176.91" y2="151.56" gradientUnits="userSpaceOnUse">
      <stop offset="0" stop-color="#ec6608"/>
      <stop offset="0.35" stop-color="#e96508"/>
      <stop offset="0.58" stop-color="#e06207"/>
      <stop offset="0.77" stop-color="#d15c06"/>
      <stop offset="0.95" stop-color="#bc5404"/>
      <stop offset="1" stop-color="#b55103"/>
    </linearGradient>
    <linearGradient id="Gradiente_sem_nome_245-3" x1="84.56" y1="132.28" x2="265.37" y2="132.28" xlink:href="#Gradiente_sem_nome_245"/>
    <linearGradient id="Gradiente_sem_nome_284" x1="188.22" y1="99.37" x2="188.22" y2="158.15" gradientUnits="userSpaceOnUse">
      <stop offset="0" stop-color="#ec6608"/>
      <stop offset="0.45" stop-color="#ea6508"/>
      <stop offset="0.63" stop-color="#e36307"/>
      <stop offset="0.76" stop-color="#d75e06"/>
      <stop offset="0.87" stop-color="#c65704"/>
      <stop offset="0.96" stop-color="#b04e02"/>
      <stop offset="1" stop-color="#a24901"/>
    </linearGradient>
    <linearGradient id="Gradiente_sem_nome_269" x1="111.08" y1="142.78" x2="265.37" y2="142.78" gradientUnits="userSpaceOnUse">
      <stop offset="0" stop-color="#f39200" stop-opacity="0.4"/>
      <stop offset="1" stop-color="#ec6608"/>
    </linearGradient>
    <linearGradient id="Gradiente_sem_nome_103" x1="161.85" y1="149.48" x2="163.12" y2="182.73" gradientUnits="userSpaceOnUse">
      <stop offset="0" stop-color="#ec6608"/>
      <stop offset="0.31" stop-color="#e96508"/>
      <stop offset="0.55" stop-color="#df6107"/>
      <stop offset="0.78" stop-color="#ce5b05"/>
      <stop offset="0.99" stop-color="#b75203"/>
      <stop offset="1" stop-color="#b55103"/>
    </linearGradient>
    <linearGradient id="Gradiente_sem_nome_261" x1="57.59" y1="139.66" x2="265.37" y2="139.66" gradientUnits="userSpaceOnUse">
      <stop offset="0" stop-color="#f39200" stop-opacity="0.3"/>
      <stop offset="1" stop-color="#ec6608"/>
    </linearGradient>
    <linearGradient id="Gradiente_sem_nome_245-4" x1="112.08" y1="68.49" x2="29.99" y2="2.81" xlink:href="#Gradiente_sem_nome_245"/>
    <linearGradient id="Gradiente_sem_nome_272" x1="124.54" y1="76.45" x2="104.97" y2="0.67" gradientUnits="userSpaceOnUse">
      <stop offset="0.24" stop-color="#ec6608"/>
      <stop offset="0.43" stop-color="#e66407"/>
      <stop offset="0.68" stop-color="#d45d06"/>
      <stop offset="0.98" stop-color="#b75203"/>
      <stop offset="1" stop-color="#b55103"/>
    </linearGradient>
    <linearGradient id="Gradiente_sem_nome_279" x1="145.85" y1="73.6" x2="202.23" y2="31.62" xlink:href="#Gradiente_sem_nome_281"/>
    <linearGradient id="Gradiente_sem_nome_274" x1="87.72" y1="61.38" x2="33.27" y2="-10.64" gradientUnits="userSpaceOnUse">
      <stop offset="0.19" stop-color="#ec6608"/>
      <stop offset="0.51" stop-color="#cc5905"/>
      <stop offset="0.81" stop-color="#b55003"/>
      <stop offset="1" stop-color="#ac4d02"/>
    </linearGradient>
    <linearGradient id="Gradiente_sem_nome_245-5" x1="78.28" y1="39.45" x2="108.94" y2="88.59" xlink:href="#Gradiente_sem_nome_245"/>
    <linearGradient id="Gradiente_sem_nome_275" x1="33.52" y1="61.58" x2="4.89" y2="27.06" gradientUnits="userSpaceOnUse">
      <stop offset="0.28" stop-color="#ec6608"/>
      <stop offset="0.47" stop-color="#dc6007"/>
      <stop offset="0.81" stop-color="#b55103"/>
    </linearGradient>
    <linearGradient id="Gradiente_sem_nome_245-6" x1="21.9" y1="57.64" x2="44.21" y2="75.75" xlink:href="#Gradiente_sem_nome_245"/>
    <linearGradient id="Gradiente_sem_nome_276" x1="31.84" y1="58.19" x2="-34.46" y2="19.67" gradientUnits="userSpaceOnUse">
      <stop offset="0.23" stop-color="#ec6608"/>
      <stop offset="0.39" stop-color="#e26207"/>
      <stop offset="0.66" stop-color="#c75704"/>
      <stop offset="0.88" stop-color="#ac4d02"/>
    </linearGradient>
    <linearGradient id="Gradiente_sem_nome_245-7" x1="3.79" y1="39.2" x2="46.31" y2="66.57" xlink:href="#Gradiente_sem_nome_245"/>
    <linearGradient id="Gradiente_sem_nome_227" x1="17.01" y1="3.67" x2="-15.97" y2="-28.59" gradientUnits="userSpaceOnUse">
      <stop offset="0" stop-color="#ec6608"/>
      <stop offset="0.23" stop-color="#e76408"/>
      <stop offset="0.51" stop-color="#d85e06"/>
      <stop offset="0.81" stop-color="#c05504"/>
      <stop offset="1" stop-color="#ac4d02"/>
    </linearGradient>
    <linearGradient id="Gradiente_sem_nome_282" x1="26.9" y1="-3.58" x2="31.24" y2="23.17" gradientUnits="userSpaceOnUse">
      <stop offset="0" stop-color="#fff" stop-opacity="0.1"/>
      <stop offset="1" stop-color="#ec6608"/>
    </linearGradient>
  </defs>
  <g class="cls-4" style="clip-path: url(#clip-path);" transform="matrix(1, 0, 0, 1, 102.438861, 95.253383)">
    <rect class="cls-5" x="0.35" width="279.64" height="187.21" style="fill: rgb(255, 255, 255);"/>
    <rect class="cls-6" y="0.16" width="280.34" height="186.9" style="fill: rgb(247, 251, 252);"/>
    <rect class="cls-7" y="0.16" width="280.34" height="186.9" style="fill: url(#Gradiente_sem_nome_245); mix-blend-mode: multiply; opacity: 0.5;"/>
    <rect class="cls-8" y="0.16" width="280.34" height="186.9" style="fill: url(#Gradiente_sem_nome_277); mix-blend-mode: multiply;"/>
    <path class="cls-6" d="M265.37-14.47V51.25c-13.56,9.29-31.26,13.49-48,14.65-24.34,1.69-49.24-1.28-72.86,4.79-29.54,7.59-54.21,28.92-71,54.38-10.62,16.11-19,34.54-33.06,47.36H-15V-14.47Z" transform="translate(14.98 14.63)" style="fill: rgb(247, 251, 252);"/>
    <path class="cls-9" d="M265.37-14.47V51.25c-13.56,9.29-31.26,13.49-48,14.65-24.34,1.69-49.24-1.28-72.86,4.79-29.54,7.59-54.21,28.92-71,54.38-10.62,16.11-19,34.54-33.06,47.36H-15V-14.47Z" transform="translate(14.98 14.63)" style="fill: url(#Gradiente_sem_nome_245-2); mix-blend-mode: multiply; opacity: 0.5;"/>
    <path class="cls-10" d="M265.37-14.47V51.25c-13.56,9.29-31.26,13.49-48,14.65-24.34,1.69-49.24-1.28-72.86,4.79-29.54,7.59-54.21,28.92-71,54.38-10.62,16.11-19,34.54-33.06,47.36H-15V-14.47Z" transform="translate(14.98 14.63)" style="fill: url(#Gradiente_sem_nome_176);"/>
    <path class="cls-11" d="M265.37,50.21v1c-13.56,9.29-31.26,13.49-48,14.65-24.34,1.69-49.24-1.28-72.86,4.79-29.54,7.59-54.21,28.92-71,54.38-10.62,16.11-19,34.54-33.06,47.36H39.18c14.57-12.84,23.07-31.7,33.91-48.13,16.79-25.46,41.46-46.78,71-54.37,23.63-6.08,48.53-3.11,72.86-4.8C233.88,64,251.76,59.69,265.37,50.21Z" transform="translate(14.98 14.63)" style="fill: url(#Gradiente_sem_nome_281); mix-blend-mode: color; opacity: 0.53;"/>
    <path class="cls-6" d="M265.37,92.13v80.3H84.56c.8-13.48,3.33-27.45,12-37.68a38.62,38.62,0,0,1,6.71-6.22c.27-.2.53-.39.8-.57,12.4-8.63,29.42-10.43,44.9-9.09,1.62.13,3.25.3,4.86.49l2.09.25c16.57,2.07,33.06,5.94,49.64,4.34.7-.07,1.39-.14,2.08-.23s1.34-.18,2-.28C231,120.19,250.49,108,265.37,92.13Z" transform="translate(14.98 14.63)" style="fill: rgb(247, 251, 252);"/>
    <path class="cls-12" d="M265.37,92.13v80.3H84.56c.8-13.48,3.33-27.45,12-37.68a38.62,38.62,0,0,1,6.71-6.22c.27-.2.53-.39.8-.57,12.4-8.63,29.42-10.43,44.9-9.09,1.62.13,3.25.3,4.86.49l2.09.25c16.57,2.07,33.06,5.94,49.64,4.34.7-.07,1.39-.14,2.08-.23s1.34-.18,2-.28C231,120.19,250.49,108,265.37,92.13Z" transform="translate(14.98 14.63)" style="fill: url(#Gradiente_sem_nome_285);"/>
    <path class="cls-13" d="M265.37,92.13v.61c-14.44,15.33-33.15,27.26-53.74,30.91-.63.11-1.26.22-1.89.31-1.36.21-2.71.38-4.08.51-17.28,1.67-34.46-2.6-51.73-4.59-.65-.08-1.3-.15-2-.21-1-.11-1.93-.2-2.9-.28-15.14-1.31-31.75.38-44.08,8.53l-.83.56a38.88,38.88,0,0,0-7.5,6.79c-8.58,10.1-11.15,23.84-12,37.16h-.11c.8-13.48,3.33-27.45,12-37.68a38.62,38.62,0,0,1,6.71-6.22c.27-.2.53-.39.8-.57,12.4-8.63,29.42-10.43,44.9-9.09,1.62.13,3.25.3,4.86.49l2.09.25c16.57,2.07,33.06,5.94,49.64,4.34.7-.07,1.39-.14,2.08-.23s1.34-.18,2-.28C231,120.19,250.49,108,265.37,92.13Z" transform="translate(14.98 14.63)" style="fill: url(#Gradiente_sem_nome_245-3); mix-blend-mode: color; opacity: 0.53;"/>
    <path class="cls-6" d="M265.37,113.14v59.29H111.08c.81-13.48,3.33-27.45,12-37.68a38.49,38.49,0,0,1,4-4l.49-.42c6.79-5.76,15.35-9.06,24.43-10.64.63-.12,1.25-.22,1.88-.31a93.55,93.55,0,0,1,21.66-.49c11.42,1,22.79,3.29,34.17,4.57l1.95.21a103.74,103.74,0,0,0,20.47.3,79.46,79.46,0,0,0,18.39-4.07l1.11-.4A93.57,93.57,0,0,0,265.37,113.14Z" transform="translate(14.98 14.63)" style="fill: rgb(247, 251, 252);"/>
    <path class="cls-14" d="M265.37,113.14v59.29H111.08c.81-13.48,3.33-27.45,12-37.68a38.49,38.49,0,0,1,4-4l.49-.42c6.79-5.76,15.35-9.06,24.43-10.64.63-.12,1.25-.22,1.88-.31a93.55,93.55,0,0,1,21.66-.49c11.42,1,22.79,3.29,34.17,4.57l1.95.21a103.74,103.74,0,0,0,20.47.3,79.46,79.46,0,0,0,18.39-4.07l1.11-.4A93.57,93.57,0,0,0,265.37,113.14Z" transform="translate(14.98 14.63)" style="fill: url(#Gradiente_sem_nome_284); mix-blend-mode: multiply;"/>
    <path class="cls-15" d="M265.37,113.14v.56a91.58,91.58,0,0,1-14.92,6.74l-1.1.37a78.87,78.87,0,0,1-17.17,3.66,107.94,107.94,0,0,1-22.44-.51c-.7-.07-1.39-.16-2.08-.24-10.68-1.31-21.35-3.41-32.07-4.33a95.68,95.68,0,0,0-19.65.22q-1,.12-2,.27c-9.57,1.42-18.65,4.66-25.84,10.56-.16.14-.33.27-.49.42a38.34,38.34,0,0,0-4.42,4.41c-8.58,10.1-11.15,23.84-12,37.16h-.11c.81-13.48,3.33-27.45,12-37.68a38.49,38.49,0,0,1,4-4l.49-.42c6.79-5.76,15.35-9.06,24.43-10.64.63-.12,1.25-.22,1.88-.31a93.55,93.55,0,0,1,21.66-.49c11.42,1,22.79,3.29,34.17,4.57l1.95.21a103.74,103.74,0,0,0,20.47.3,79.46,79.46,0,0,0,18.39-4.07l1.11-.4A93.57,93.57,0,0,0,265.37,113.14Z" transform="translate(14.98 14.63)" style="fill: url(#Gradiente_sem_nome_269); mix-blend-mode: color; opacity: 0.53;"/>
    <path class="cls-6" d="M265.37,106.9v65.53H57.59c2.86-12.72,7.49-25.49,17.24-34,8.09-7,18.46-10,29.26-10.51l.9,0a90.86,90.86,0,0,1,22.55,2.39l.55.13.95.23c18.45,4.46,36.22,12.51,55.17,13.55,23.57,1.3,46.75-8.6,65.14-23.41l.31-.25.83-.68C255.53,115.73,260.38,111.19,265.37,106.9Z" transform="translate(14.98 14.63)" style="fill: rgb(247, 251, 252);"/>
    <path class="cls-16" d="M265.37,106.9v65.53H57.59c2.86-12.72,7.49-25.49,17.24-34,8.09-7,18.46-10,29.26-10.51l.9,0a90.86,90.86,0,0,1,22.55,2.39l.55.13.95.23c18.45,4.46,36.22,12.51,55.17,13.55,23.57,1.3,46.75-8.6,65.14-23.41l.31-.25.83-.68C255.53,115.73,260.38,111.19,265.37,106.9Z" transform="translate(14.98 14.63)" style="fill: url(#Gradiente_sem_nome_103); mix-blend-mode: multiply;"/>
    <path class="cls-17" d="M265.37,106.9v.52c-4.62,4-9.12,8.17-13.77,12.06-.38.32-.76.65-1.15,1l-.79.65c-18.44,14.94-41.75,25-65.45,23.66-19-1-36.72-9.09-55.17-13.56l-1.44-.33-.55-.13a89,89,0,0,0-22.89-2.25l-.87.05c-10.52.58-20.57,3.61-28.46,10.46-9.62,8.37-14.25,20.89-17.12,33.44h-.12c2.86-12.72,7.49-25.49,17.24-34,8.09-7,18.46-10,29.26-10.51l.9,0a90.86,90.86,0,0,1,22.55,2.39l.55.13.95.23c18.45,4.46,36.22,12.51,55.17,13.55,23.57,1.3,46.75-8.6,65.14-23.41l.31-.25.83-.68C255.53,115.73,260.38,111.19,265.37,106.9Z" transform="translate(14.98 14.63)" style="fill: url(#Gradiente_sem_nome_261); mix-blend-mode: color; opacity: 0.53;"/>
    <path class="cls-6" d="M265.37-14.47V10.37a54,54,0,0,1-6.26,15.15C246.36,46.32,220,54.38,195.68,56s-49.23-1.33-72.87,4.71C93.27,68.3,68.57,89.6,51.75,115c-12.14,18.34-21.36,39.72-39.38,52.33a52.28,52.28,0,0,1-9,5.06H-15V-14.47Z" transform="translate(14.98 14.63)" style="fill: rgb(247, 251, 252);"/>
    <path class="cls-18" d="M265.37-14.47V10.37a54,54,0,0,1-6.26,15.15C246.36,46.32,220,54.38,195.68,56s-49.23-1.33-72.87,4.71C93.27,68.3,68.57,89.6,51.75,115c-12.14,18.34-21.36,39.72-39.38,52.33a52.28,52.28,0,0,1-9,5.06H-15V-14.47Z" transform="translate(14.98 14.63)" style="fill: url(#Gradiente_sem_nome_245-4); mix-blend-mode: multiply; opacity: 0.5;"/>
    <path class="cls-19" d="M265.37-14.47V10.37a54,54,0,0,1-6.26,15.15C246.36,46.32,220,54.38,195.68,56s-49.23-1.33-72.87,4.71C93.27,68.3,68.57,89.6,51.75,115c-12.14,18.34-21.36,39.72-39.38,52.33a52.28,52.28,0,0,1-9,5.06H-15V-14.47Z" transform="translate(14.98 14.63)" style="fill: url(#Gradiente_sem_nome_272);"/>
    <path class="cls-20" d="M265.37,9.21v1.16a54,54,0,0,1-6.26,15.15C246.36,46.32,220,54.38,195.68,56s-49.23-1.33-72.87,4.71C93.27,68.3,68.57,89.6,51.75,115c-12.14,18.34-21.36,39.72-39.38,52.33a52.28,52.28,0,0,1-9,5.06H.57a52.92,52.92,0,0,0,11.8-6.18c18-12.62,27.24-34,39.37-52.34,16.82-25.44,41.52-46.74,71.07-54.29,23.63-6,48.53-3,72.86-4.71s50.69-9.72,63.43-30.51A54.13,54.13,0,0,0,265.37,9.21Z" transform="translate(14.98 14.63)" style="fill: url(#Gradiente_sem_nome_279); mix-blend-mode: color; opacity: 0.53;"/>
    <path class="cls-6" d="M217-14.47c-.19.53-.39,1.06-.61,1.58C207.26,9.73,182.6,22,158.87,27.63S110.08,34.4,87.76,44.25C59.86,56.56,39,81.62,26.59,109.48c-9,20.09-14.54,42.69-30.24,58.09a51.68,51.68,0,0,1-5.73,4.86H-15V-14.47Z" transform="translate(14.98 14.63)" style="fill: rgb(247, 251, 252);"/>
    <path class="cls-21" d="M217-14.47c-.19.53-.39,1.06-.61,1.58C207.26,9.73,182.6,22,158.87,27.63S110.08,34.4,87.76,44.25C59.86,56.56,39,81.62,26.59,109.48c-9,20.09-14.54,42.69-30.24,58.09a51.68,51.68,0,0,1-5.73,4.86H-15V-14.47Z" transform="translate(14.98 14.63)" style="fill: url(#Gradiente_sem_nome_274);"/>
    <path class="cls-22" d="M217-14.47c-.19.53-.39,1.06-.61,1.58C207.26,9.73,182.6,22,158.87,27.63S110.08,34.4,87.76,44.25C59.86,56.56,39,81.62,26.59,109.48c-9,20.09-14.54,42.69-30.24,58.09a51.68,51.68,0,0,1-5.73,4.86h-1.76a53.23,53.23,0,0,0,7.3-6c15.7-15.41,21.28-38,30.23-58.1C38.81,80.51,59.67,55.45,87.57,43.14c22.32-9.85,47.37-11,71.11-16.62S207.08,8.61,216.23-14c.06-.16.13-.31.19-.47Z" transform="translate(14.98 14.63)" style="fill: url(#Gradiente_sem_nome_245-5); mix-blend-mode: color; opacity: 0.53;"/>
    <path class="cls-6" d="M110.75-7.67C108.76,11.21,93,25.69,76.41,35s-35,15.54-49.6,27.7C8.58,77.9-1.64,101.13-4.94,124.63c-2.26,16.14-1.75,33.33-9,47.8H-15V6.53l44.07-21h81.78A39.67,39.67,0,0,1,110.75-7.67Z" transform="translate(14.98 14.63)" style="fill: rgb(247, 251, 252);"/>
    <path class="cls-23" d="M110.75-7.67C108.76,11.21,93,25.69,76.41,35s-35,15.54-49.6,27.7C8.58,77.9-1.64,101.13-4.94,124.63c-2.26,16.14-1.75,33.33-9,47.8H-15V6.53l44.07-21h81.78A39.67,39.67,0,0,1,110.75-7.67Z" transform="translate(14.98 14.63)" style="fill: url(#Gradiente_sem_nome_275);"/>
    <path class="cls-24" d="M110.75-7.67C108.76,11.21,93,25.69,76.41,35s-35,15.54-49.6,27.7C8.58,77.9-1.64,101.13-4.94,124.63c-2.26,16.14-1.75,33.33-9,47.8h-.56c7.44-14.55,6.9-31.9,9.19-48.18C-2,100.74,8.22,77.52,26.44,62.31,41,50.16,59.51,43.93,76.05,34.61S108.4,10.82,110.39-8a40.55,40.55,0,0,0,.14-6.42h.34A39.67,39.67,0,0,1,110.75-7.67Z" transform="translate(14.98 14.63)" style="fill: url(#Gradiente_sem_nome_245-6); mix-blend-mode: color; opacity: 0.53;"/>
    <path class="cls-6" d="M108.47-14.47c-6.77,9-16.59,16.23-26.63,21.61C65.1,16.08,46.48,21.91,31.64,33.75,13.09,48.55,2.38,71.55-1.43,95c-2.75,16.89-2.47,35-11.22,49.71A38.36,38.36,0,0,1-15,148.17V-14.47Z" transform="translate(14.98 14.63)" style="fill: rgb(247, 251, 252);"/>
    <path class="cls-25" d="M108.47-14.47c-6.77,9-16.59,16.23-26.63,21.61C65.1,16.08,46.48,21.91,31.64,33.75,13.09,48.55,2.38,71.55-1.43,95c-2.75,16.89-2.47,35-11.22,49.71A38.36,38.36,0,0,1-15,148.17V-14.47Z" transform="translate(14.98 14.63)" style="fill: url(#Gradiente_sem_nome_276);"/>
    <path class="cls-26" d="M108.47-14.47c-6.77,9-16.59,16.23-26.63,21.61C65.1,16.08,46.48,21.91,31.64,33.75,13.09,48.55,2.38,71.55-1.43,95c-2.75,16.89-2.47,35-11.22,49.71A38.36,38.36,0,0,1-15,148.17v-.87c.71-1,1.36-2,2-3,8.75-14.7,8.47-32.81,11.22-49.71C2,71.16,12.74,48.16,31.29,33.36,46.13,21.52,64.75,15.69,81.49,6.74c9.9-5.29,19.57-12.4,26.33-21.21Z" transform="translate(14.98 14.63)" style="fill: url(#Gradiente_sem_nome_245-7); mix-blend-mode: color; opacity: 0.53;"/>
    <path class="cls-6" d="M75.3-14.47c-6.77,9-16.59,16.23-26.63,21.61C31.93,16.08,13.31,21.91-1.53,33.75A79.7,79.7,0,0,0-15,47.53v-62Z" transform="translate(14.98 14.63)" style="fill: rgb(247, 251, 252);"/>
    <path class="cls-27" d="M75.3-14.47c-6.77,9-16.59,16.23-26.63,21.61C31.93,16.08,13.31,21.91-1.53,33.75A79.7,79.7,0,0,0-15,47.53v-62Z" transform="translate(14.98 14.63)" style="fill: url(#Gradiente_sem_nome_227);"/>
    <path class="cls-28" d="M75.3-14.47c-6.77,9-16.59,16.23-26.63,21.61C31.93,16.08,13.31,21.91-1.53,33.75A79.7,79.7,0,0,0-15,47.53v-.84A79,79,0,0,1-1.88,33.36C13,21.52,31.58,15.69,48.32,6.74c9.9-5.29,19.57-12.4,26.33-21.21Z" transform="translate(14.98 14.63)" style="fill: url(#Gradiente_sem_nome_282); mix-blend-mode: color; opacity: 0.53;"/>
    <rect class="cls-29" x="0.25" y="2.56" width="279.85" height="187.21" style="fill: rgb(255, 103, 29); mix-blend-mode: color;"/>
  </g>
</svg>