<?xml version="1.0" encoding="utf-8"?>
<!-- Generator: Adobe Illustrator 21.1.0, SVG Export Plug-In . SVG Version: 6.00 Build 0)  -->
<svg version="1.1" id="Camada_1" xmlns="http://www.w3.org/2000/svg" xmlns:xlink="http://www.w3.org/1999/xlink" x="0px" y="0px"
	 viewBox="0 0 550 140" style="enable-background:new 0 0 550 140;" xml:space="preserve">
<style type="text/css">
	.st0{fill:#414042;}
	.st1{fill:#F37021;}
</style>
<title>Prancheta 1 cópia 2</title>
<path class="st0" d="M164.3,110.7h22.3c5,0,9.3-3.7,10.3-8.7l8-44.3c1-5.7-2.7-11-8.3-12c-0.7,0-1.3-0.3-1.7-0.3h-11
	c-5,0-9.3,3.7-10.3,8.7L169,80c-1,5.7,2.7,11,8.3,12c0.7,0,1.3,0.3,2,0.3h10.3L188,102c-0.3,1-1,1.7-2,1.7h-20L164.3,110.7z
	 M196.3,55l-5.7,30h-11c-1,0-2-1-2-2v-0.3l5.3-28.3c0.3-1,1-1.7,2-1.7h9.3C195.3,52.6,196.3,53.6,196.3,55L196.3,55L196.3,55z"/>
<path class="st0" d="M339,49c-2-2.3-5-3.7-8-3.7h-11c-5,0-9.3,3.7-10.3,8.7l-7,38.3h9.3l7-37.7c0.3-1,1-1.7,2-1.7h9.3c1,0,2,1,2,2
	v0.3l-6.7,37h9.3l6.3-34.3C341.7,54.6,341,51.3,339,49z"/>
<path class="st0" d="M256.7,45.3c-5,0-9.3,3.7-10.3,8.7l-7,38.3h9.3l7-37.7c0.3-1,1-1.7,2-1.7H270l1.3-7.3L256.7,45.3L256.7,45.3z"
	/>
<path class="st0" d="M239,49c-2-2.3-5-3.7-8-3.7h-11c-5,0-9.3,3.7-10.3,8.7L205,80c-1,5.7,2.7,11,8.3,12c0.7,0,1.3,0.3,2,0.3h18.3
	l1-7h-19c-1,0-2-1-2-2V83l1-5.3h14c5,0,9.3-3.7,10.3-8.7l2-11C242,54.6,241,51.3,239,49z M232.3,55L230,68c-0.3,1-1,1.7-2,1.7h-11.7
	L219,54c0.3-1,1-1.7,2-1.7h9.3c1,0,2,1,2,2C232.3,54.6,232.3,55,232.3,55z"/>
<path class="st0" d="M302.3,49c-2-2.3-5-3.7-8-3.7h-11c-5,0-9.3,3.7-10.3,8.7l-4.7,26c-1,5.7,2.7,11,8.3,12c0.7,0,1.3,0.3,2,0.3H297
	l1.3-7h-19c-1,0-2-1-2-2V83l1-5.3h14c5,0,9.3-3.7,10.3-8.7l2-11C305.3,54.6,304.3,51.3,302.3,49z M295.7,55l-2.3,13
	c-0.3,1-1,1.7-2,1.7h-11.7l2.7-15.7c0.3-1,1-1.7,2-1.7h9.3c1,0,2,1,2,2C295.7,54.6,295.7,55,295.7,55z"/>
<path class="st0" d="M421.3,49c-2-2.3-5-3.7-8-3.7h-15l-1.3,7h15.7c1,0,2,1,2,2v0.3l-1,5.3h-14c-5,0-9.3,3.7-10.3,8.7l-2,11
	c-1,5.7,2.7,11,8.3,12c0.7,0,1.3,0.3,2,0.3h11c5,0,9.3-3.7,10.3-8.7l4.7-26C424.3,54.6,423.3,51.3,421.3,49z M407.7,85h-9.3
	c-1,0-2-1-2-2v-0.3l2.3-13c0.3-1,1-1.7,2-1.7h11.7l-3,15.7C409.3,84,408.7,84.7,407.7,85z"/>
<path class="st0" d="M355.7,54.3c0.3-1,1.3-2,2.3-2h14.3l1.3-7.3H357c-5,0-9.7,3.7-10.7,8.7L341.7,79c-1,5.7,2.7,11.3,8.7,12.3
	c0.7,0,1.3,0.3,2,0.3H365l1.3-7h-13.7c-1.3,0-2.3-1-2.3-2.3V82L355.7,54.3z"/>
<polygon class="st0" points="378.3,49.3 370.7,91.7 380,91.7 387.7,49.3 "/>
<polygon class="st0" points="380.3,38 379.3,45.3 388.7,45.3 389.7,38 "/>
<path class="st0" d="M458.7,49c-2-2.3-5-3.7-8-3.7h-11c-5,0-9.3,3.7-10.3,8.7l-7,38.3h9.3l7-37.7c0.3-1,1-1.7,2-1.7h9.3c1,0,2,1,2,2
	v0.3l-6.7,37h9.3L461,58C461.3,54.6,460.7,51.3,458.7,49z"/>
<path class="st0" d="M495.3,49c-2-2.3-5-3.7-8-3.7h-11c-5,0-9.3,3.7-10.3,8.7l-4.7,26c-1,5.7,2.7,11,8.3,12c0.7,0,1.3,0.3,2,0.3H490
	l1.3-7h-19c-1,0-2-1-2-2V83l1-5.3h14c5,0,9.3-3.7,10.3-8.7l2-11C498,54.6,497.3,51.3,495.3,49z M488.7,55l-2.3,13
	c-0.3,1-1,1.7-2,1.7h-11.7l3-15.7c0.3-1,1-1.7,2-1.7h9.3c1,0,2,1,2,2C488.7,54.6,488.7,55,488.7,55z"/>
<path class="st0" d="M511.7,54.3c0.3-1,1.3-2,2.3-2h9.7L525,45h-11.7l1.3-7.3h-9.3L499,72.3l0,0l-1.3,6.7c-1,5.7,2.7,11.3,8.7,12.3
	c0.7,0,1.3,0.3,2,0.3h11l1.3-7H509c-1.3,0-2.3-1-2.3-2.3V82L511.7,54.3z"/>
<path class="st1" d="M83.7,62.3L142,46.6l5.7-31.7L86,41.6c-8.7,3.7-17.7,5.7-27,5.7h-7.7L44,64.7h21.7C72,64.7,77.7,64,83.7,62.3z"
	/>
<path class="st1" d="M34.7,87.3h42.7l56.7,3l5.7-31L81.3,69.7c-4,0.7-8,1-12,1H41.7L34.7,87.3z"/>
<path class="st1" d="M69.3,93h-37L25,110.3h39c10.3,0,20.7,1.7,30.3,4.7l33.3,10.3l4-22.3L86,95C80.7,93.3,75,93,69.3,93z"/>
</svg>
